<svg width="36" height="36" xmlns="http://www.w3.org/2000/svg">
 <g>
  <title>Layer 1</title>
  <g id="svg_1">
   <path id="svg_21" fill="#2f3a8f" d="m366.65093,286.5586c0,-1.65752 0.88591,-3.19941 3.05483,-3.77983c2.16893,-0.58042 22.91119,-5.22376 22.91119,-5.22376c1.6872,0 3.0549,1.34368 3.0549,3.0012l0,11.2545l0,11.2545c0,1.6575 -1.3677,3.0012 -3.0549,3.0012l-22.91119,4.5018c-1.68713,1.5006 -3.05483,0.1569 -3.05483,-1.5006l0,-22.50901z"/>
   <path id="svg_22" fill="#cdbdff" d="m366.35055,288.24489c0,-1.933 1.567,-3.5 3.5,-3.5l25.2,0c1.933,0 3.5,1.567 3.5,3.5l0,21.70001c0,1.933 -1.567,3.5 -3.5,3.5l-25.2,0c-1.933,0 -3.50001,-1.567 -3.50001,-3.5l0,-21.70001l0.00001,0z"/>
   <path id="svg_23" fill="#2f3a8f" d="m384.11663,295.27822c0,-1.933 1.567,-3.5 3.5,-3.5l11.2,0c1.933,0 3.5,1.567 3.5,3.5l0,5.6c0,1.933 -1.567,3.5 -3.5,3.5l-11.2,0c-1.933,0 -3.5,-1.567 -3.5,-3.5l0,-5.6z"/>
   <path id="svg_24" fill="#cdbdff" d="m392.19519,298.13325c0,1.2822 -1.0395,2.3216 -2.3217,2.3216c-1.2822,0 -2.3216,-1.0394 -2.3216,-2.3216c0,-1.2823 1.0394,-2.3217 2.3216,-2.3217c1.2822,0 2.3217,1.0394 2.3217,2.3217z"/>
  </g>
  <g id="svg_30">
   <path id="svg_26" fill="#2f3a8f" d="m0.30039,9.00359c0,-1.65752 0.88591,-3.19941 3.05483,-3.77983c2.16893,-0.58042 22.91119,-5.22376 22.91119,-5.22376c1.6872,0 3.0549,1.34368 3.0549,3.0012l0,11.2545l0,11.2545c0,1.6575 -1.3677,3.0012 -3.0549,3.0012l-22.91119,4.5018c-1.68713,1.5006 -3.05483,0.1569 -3.05483,-1.5006l0,-22.50901z"/>
   <path id="svg_27" fill="#cdbdff" d="m0.00001,10.68988c0,-1.933 1.567,-3.5 3.5,-3.5l25.2,0c1.933,0 3.5,1.567 3.5,3.5l0,21.70001c0,1.933 -1.567,3.5 -3.5,3.5l-25.2,0c-1.933,0 -3.50001,-1.567 -3.50001,-3.5l0,-21.70001l0.00001,0z"/>
   <path id="svg_28" fill="#2f3a8f" d="m17.76609,17.72321c0,-1.933 1.567,-3.5 3.5,-3.5l11.2,0c1.933,0 3.5,1.567 3.5,3.5l0,5.6c0,1.933 -1.567,3.5 -3.5,3.5l-11.2,0c-1.933,0 -3.5,-1.567 -3.5,-3.5l0,-5.6z"/>
   <path id="svg_29" fill="#cdbdff" d="m25.84465,20.57824c0,1.2822 -1.0395,2.3216 -2.3217,2.3216c-1.2822,0 -2.3216,-1.0394 -2.3216,-2.3216c0,-1.2823 1.0394,-2.3217 2.3216,-2.3217c1.2822,0 2.3217,1.0394 2.3217,2.3217z"/>
  </g>
 </g>

</svg>