<svg width="36" height="36" xmlns="http://www.w3.org/2000/svg">
 <g>
  <title>Layer 1</title>
  <g id="svg_1">
   <path id="svg_21" fill="#2f3a8f" d="m366.65093,286.5586c0,-1.65752 0.88591,-3.19941 3.05483,-3.77983c2.16893,-0.58042 22.91119,-5.22376 22.91119,-5.22376c1.6872,0 3.0549,1.34368 3.0549,3.0012l0,11.2545l0,11.2545c0,1.6575 -1.3677,3.0012 -3.0549,3.0012l-22.91119,4.5018c-1.68713,1.5006 -3.05483,0.1569 -3.05483,-1.5006l0,-22.50901z"/>
   <path id="svg_22" fill="#cdbdff" d="m366.35055,288.24489c0,-1.933 1.567,-3.5 3.5,-3.5l25.2,0c1.933,0 3.5,1.567 3.5,3.5l0,21.70001c0,1.933 -1.567,3.5 -3.5,3.5l-25.2,0c-1.933,0 -3.50001,-1.567 -3.50001,-3.5l0,-21.70001l0.00001,0z"/>
   <path id="svg_23" fill="#2f3a8f" d="m384.11663,295.27822c0,-1.933 1.567,-3.5 3.5,-3.5l11.2,0c1.933,0 3.5,1.567 3.5,3.5l0,5.6c0,1.933 -1.567,3.5 -3.5,3.5l-11.2,0c-1.933,0 -3.5,-1.567 -3.5,-3.5l0,-5.6z"/>
   <path id="svg_24" fill="#cdbdff" d="m392.19519,298.13325c0,1.2822 -1.0395,2.3216 -2.3217,2.3216c-1.2822,0 -2.3216,-1.0394 -2.3216,-2.3216c0,-1.2823 1.0394,-2.3217 2.3216,-2.3217c1.2822,0 2.3217,1.0394 2.3217,2.3217z"/>
  </g>
  <g stroke="null" id="svg_2">
   <path stroke="null" id="svg_3" fill="#2f3a8f" d="m7.33863,20.40959c0.43198,-0.81268 1.56913,-0.81268 2.00111,0l7.19783,13.54165c0.41431,0.77937 -0.13546,1.72962 -1.00057,1.72962l-14.39568,0c-0.86512,0 -1.41481,-0.95024 -1.00056,-1.72962l7.19785,-13.54165l0.00001,0z"/>
   <path stroke="null" id="svg_4" fill="#cdbdff" d="m1.10275,2.52477c0,-1.29187 1.02055,-2.33913 2.27945,-2.33913l10.63738,0c1.2589,0 2.27944,1.04726 2.27944,2.33913l0,10.91592c0,1.29187 -1.02054,2.33913 -2.27944,2.33913l-10.63739,0c-1.25889,0 -2.27944,-1.04726 -2.27944,-2.33913l0,-10.91592z"/>
   <path stroke="null" id="svg_5" fill="#cdbdff" d="m19.73628,22.61155c0,-1.29187 1.02054,-2.33913 2.27944,-2.33913l10.63739,0c1.2589,0 2.27944,1.04726 2.27944,2.33913l0,10.91592c0,1.29187 -1.02054,2.33913 -2.27944,2.33913l-10.63739,0c-1.2589,0 -2.27944,-1.04726 -2.27944,-2.33913l0,-10.91592z"/>
   <path stroke="null" id="svg_6" fill="#2f3a8f" d="m34.93255,7.79709c0,4.30622 -3.40179,7.79709 -7.59814,7.79709c-4.19634,0 -7.59814,-3.49087 -7.59814,-7.79709c0,-4.30621 3.40179,-7.79709 7.59814,-7.79709c4.19634,0 7.59814,3.49088 7.59814,7.79709z"/>
  </g>
 </g>

</svg>