<svg width="33" height="34" viewBox="0 0 33 34" fill="none" xmlns="http://www.w3.org/2000/svg">
<path d="M7.37811 19.3895C7.77608 18.6599 8.82372 18.6599 9.22169 19.3895L15.8529 31.5468C16.2346 32.2465 15.7281 33.0996 14.9311 33.0996H1.66867C0.871659 33.0996 0.36523 32.2465 0.746881 31.5468L7.37811 19.3895Z" fill="#2F3A8F"/>
<path d="M1.2998 2.9999C1.2998 1.8401 2.24001 0.899902 3.39981 0.899902H13.1998C14.3596 0.899902 15.2998 1.8401 15.2998 2.9999V12.7999C15.2998 13.9597 14.3596 14.8999 13.1998 14.8999H3.3998C2.24001 14.8999 1.2998 13.9597 1.2998 12.7999V2.9999Z" fill="#CDBDFF"/>
<path d="M18.7998 21.2001C18.7998 20.0403 19.74 19.1001 20.8998 19.1001H30.6998C31.8596 19.1001 32.7998 20.0403 32.7998 21.2001V31.0001C32.7998 32.1599 31.8596 33.1001 30.6998 33.1001H20.8998C19.74 33.1001 18.7998 32.1599 18.7998 31.0001V21.2001Z" fill="#CDBDFF"/>
<path d="M32.7998 7.8999C32.7998 11.7659 29.6658 14.8999 25.7998 14.8999C21.9338 14.8999 18.7998 11.7659 18.7998 7.8999C18.7998 4.03391 21.9338 0.899902 25.7998 0.899902C29.6658 0.899902 32.7998 4.03391 32.7998 7.8999Z" fill="#2F3A8F"/>
</svg>
