<svg width="31" height="30" viewBox="0 0 31 30" fill="none" xmlns="http://www.w3.org/2000/svg">
<path d="M0.600098 2.40029C0.600098 1.24049 1.5403 0.300293 2.7001 0.300293H28.6818C29.8416 0.300293 30.7818 1.24049 30.7818 2.40029V27.2211C30.7818 28.3809 29.8416 29.3211 28.6818 29.3211H2.7001C1.5403 29.3211 0.600098 28.3809 0.600098 27.2211V2.40029Z" fill="#CDBDFF"/>
<path d="M26.1385 9.00629C26.1385 11.2502 24.3195 13.0693 22.0756 13.0693C19.8317 13.0693 18.0127 11.2502 18.0127 9.00629C18.0127 6.7624 19.8317 4.94336 22.0756 4.94336C24.3195 4.94336 26.1385 6.7624 26.1385 9.00629Z" fill="#2F3A8F"/>
<path fill-rule="evenodd" clip-rule="evenodd" d="M30.7818 25.4443V27.9201C30.7818 28.6933 30.155 29.3201 29.3818 29.3201H2.0001C1.2269 29.3201 0.600098 28.6933 0.600098 27.9201V26.2801L8.43508 12.1025C9.31834 10.5042 11.6159 10.5042 12.4991 12.1025L19.5301 24.8253L22.9667 18.873C23.8603 17.3253 26.0943 17.3253 26.9879 18.873L30.7818 25.4443Z" fill="#2F3A8F"/>
</svg>
