<svg width="36" height="36" viewBox="0 0 36 36" fill="none" xmlns="http://www.w3.org/2000/svg">
<path d="M2.71679 17.9586C2.63434 17.6876 2.65962 17.3971 2.78779 17.1427L7.76123 7.27277C8.07089 6.65825 8.87098 6.43649 9.47724 6.79712L19.2152 12.5893C19.4662 12.7386 19.6506 12.971 19.733 13.242L24.7814 29.8369C24.9662 30.4444 24.6 31.08 23.9636 31.2564L9.25215 35.3341C8.61564 35.5105 7.9499 35.161 7.76509 34.5535L2.71679 17.9586Z" fill="#2F3A8F"/>
<path fill-rule="evenodd" clip-rule="evenodd" d="M8.19792 18.6185C8.23982 19.0185 8.42729 19.3918 8.72771 19.6734L22.1485 32.2555C22.8577 32.9204 23.9974 32.9107 24.694 32.2337L34.5874 22.6183C35.284 21.9413 35.2738 20.8535 34.5645 20.1885L21.1437 7.60643C20.8433 7.32478 20.4489 7.15259 20.0292 7.1198L9.0386 6.26124C7.91823 6.17372 6.98885 7.07698 7.1007 8.14466L8.19792 18.6185ZM13.6277 12.4135C14.3135 11.747 14.3034 10.6762 13.6052 10.0216C12.9071 9.3671 11.7851 9.37676 11.0994 10.0432C10.4137 10.7097 10.4238 11.7805 11.122 12.435C11.8202 13.0896 12.942 13.0799 13.6277 12.4135Z" fill="#CDBDFF"/>
</svg>
